<svg xmlns="http://www.w3.org/2000/svg" viewBox="0 0 560 100" width="560" height="100" role="img" aria-label="Language distribution across public repositories: Python 41% · JavaScript 24% · C# 14% · Rust 8% · CSS 7% · Other 5%">
  <title>Language distribution across public repositories — Python 41% · JavaScript 24% · C# 14% · Rust 8% · CSS 7% · Other 5%</title>
  <style>
    text{font-family:ui-monospace,"SFMono-Regular","SF Mono","Cascadia Mono","Roboto Mono","Liberation Mono",Menlo,Consolas,monospace}
    .pct{font-size:12px;font-weight:600;fill:#B9C4CF}
    .lbl{font-size:11px;font-weight:500;fill:#B9C4CF;opacity:.72}
    .seg{transform-origin:left center;animation:grow .9s cubic-bezier(.22,.61,.36,1) backwards}
    @keyframes grow{from{transform:scaleX(0)}to{transform:scaleX(1)}}
    @media (prefers-reduced-motion:reduce){.seg{animation:none}}
  </style>
  <rect class="seg" x="0.0" y="16" width="225.8" height="10" rx="5.0" fill="#C99A3F" style="animation-delay:0.00s"/>
  <rect class="seg" x="228.8" y="16" width="128.2" height="10" rx="5.0" fill="#6E8FB8" style="animation-delay:0.07s"/>
  <rect class="seg" x="360.0" y="16" width="78.6" height="10" rx="5.0" fill="#B4763A" style="animation-delay:0.14s"/>
  <rect class="seg" x="441.5" y="16" width="44.8" height="10" rx="5.0" fill="#4E6C8E" style="animation-delay:0.21s"/>
  <rect class="seg" x="489.3" y="16" width="38.1" height="10" rx="5.0" fill="#7D8A99" style="animation-delay:0.28s"/>
  <rect class="seg" x="530.3" y="16" width="29.7" height="10" rx="5.0" fill="#39434F" style="animation-delay:0.35s"/>
  <rect x="0" y="48" width="9" height="9" rx="2.5" fill="#C99A3F"/>
  <text class="pct" x="17" y="56">41.4%</text>
  <text class="lbl" x="63" y="56">Python</text>
  <rect x="192" y="48" width="9" height="9" rx="2.5" fill="#6E8FB8"/>
  <text class="pct" x="209" y="56">23.5%</text>
  <text class="lbl" x="255" y="56">JavaScript</text>
  <rect x="384" y="48" width="9" height="9" rx="2.5" fill="#B4763A"/>
  <text class="pct" x="401" y="56">14.4%</text>
  <text class="lbl" x="447" y="56">C#</text>
  <rect x="0" y="76" width="9" height="9" rx="2.5" fill="#4E6C8E"/>
  <text class="pct" x="17" y="84">8.2%</text>
  <text class="lbl" x="63" y="84">Rust</text>
  <rect x="192" y="76" width="9" height="9" rx="2.5" fill="#7D8A99"/>
  <text class="pct" x="209" y="84">7.0%</text>
  <text class="lbl" x="255" y="84">CSS</text>
  <rect x="384" y="76" width="9" height="9" rx="2.5" fill="#39434F"/>
  <text class="pct" x="401" y="84">5.4%</text>
  <text class="lbl" x="447" y="84">Other</text>
</svg>
